<?xml version="1.0" encoding="UTF-8" standalone="no"?>
<svg
   xmlns:dc="http://purl.org/dc/elements/1.1/"
   xmlns:cc="http://creativecommons.org/ns#"
   xmlns:rdf="http://www.w3.org/1999/02/22-rdf-syntax-ns#"
   xmlns:svg="http://www.w3.org/2000/svg"
   xmlns="http://www.w3.org/2000/svg"
   xmlns:sodipodi="http://sodipodi.sourceforge.net/DTD/sodipodi-0.dtd"
   xmlns:inkscape="http://www.inkscape.org/namespaces/inkscape"
   width="1024"
   height="1024"
   viewBox="0 0 1024 1024"
   fill="none"
   version="1.1"
   id="svg73"
   sodipodi:docname="YtBrowser.svg"
   inkscape:version="1.0.2 (e86c870879, 2021-01-15)">
  <metadata
     id="metadata77">
    <rdf:RDF>
      <cc:Work
         rdf:about="">
        <dc:format>image/svg+xml</dc:format>
        <dc:type
           rdf:resource="http://purl.org/dc/dcmitype/StillImage" />
        <dc:title></dc:title>
      </cc:Work>
    </rdf:RDF>
  </metadata>
  <sodipodi:namedview
     pagecolor="#ffffff"
     bordercolor="#666666"
     borderopacity="1"
     objecttolerance="10"
     gridtolerance="10"
     guidetolerance="10"
     inkscape:pageopacity="0"
     inkscape:pageshadow="2"
     inkscape:window-width="1306"
     inkscape:window-height="739"
     id="namedview75"
     showgrid="false"
     inkscape:zoom="0.21896712"
     inkscape:cx="-1194.1262"
     inkscape:cy="723.15329"
     inkscape:window-x="60"
     inkscape:window-y="0"
     inkscape:window-maximized="1"
     inkscape:current-layer="svg73" />
  <path
     d="m 511.94035,213.13524 c 0,0 -261.71697,0 -327.40371,17.42117 -35.17129,10.03066 -64.13279,39.59031 -73.9596,76.01769 -17.068388,67.04453 -17.068747,205.89112 -17.068747,205.89112 0,0 3.59e-4,139.37294 17.068747,205.36236 9.82681,36.42619 38.27152,65.45828 73.9596,75.48894 66.20472,17.94872 327.40371,17.94992 327.40371,17.94992 0,0 262.23495,0 327.92169,-17.42117 35.68808,-10.03066 64.1316,-38.5352 73.44211,-75.48894 17.58505,-66.51817 17.58624,-205.36356 17.58624,-205.36356 0,0 0.51679,-139.37414 -17.58624,-206.41867 -9.31051,-36.42738 -37.75403,-65.45828 -73.44211,-74.96139 C 774.1753,213.13644 511.94035,213.13524 511.94035,213.13524 Z"
     fill="url(#paint1_radial)"
     id="path4"
     style="fill:url(#paint1_radial);stroke-width:11.9626" />
  <g
     filter="url(#filter0_i)"
     id="g8"
     transform="matrix(11.962618,0,0,11.962624,-2.1926553,-2.1919876)">
    <path
       d="m 42.9783,18 c 0,0 -21.8779,0 -27.3689,1.4563 -2.9401,0.8385 -5.3611,3.3095 -6.18256,6.3546 C 8.00003,31.4154 8,43.0221 8,43.0221 c 0,0 3e-5,11.6507 1.42684,17.167 0.82146,3.045 3.19926,5.4719 6.18256,6.3104 C 21.1437,67.9999 42.9783,68 42.9783,68 c 0,0 21.9212,0 27.4122,-1.4563 2.9833,-0.8385 5.361,-3.2213 6.1393,-6.3104 1.47,-5.5605 1.4701,-17.1671 1.4701,-17.1671 0,0 0.0432,-11.6508 -1.4701,-17.2553 C 75.7515,22.7658 73.3738,20.339 70.3905,19.5446 64.8995,18.0001 42.9783,18 42.9783,18 Z"
       fill="#ffffff"
       fill-opacity="0.01"
       id="path6" />
  </g>
  <g
     filter="url(#filter1_dd)"
     id="g12"
     transform="matrix(11.962618,0,0,11.962624,-2.1926553,-2.1919876)">
    <path
       d="m 51.8138,41.2476 c 1.3815,0.7598 1.3815,2.745 0,3.5048 l -13.85,7.6175 C 36.6309,53.103 35,52.1387 35,50.6175 v -15.235 c 0,-1.5212 1.6309,-2.4855 2.9638,-1.7524 z"
       fill="url(#paint2_radial)"
       id="path10"
       style="fill:url(#paint2_radial)" />
  </g>
  <defs
     id="defs71">
    <filter
       id="filter0_i"
       x="8"
       y="18"
       width="70"
       height="50"
       filterUnits="userSpaceOnUse"
       color-interpolation-filters="sRGB">
      <feFlood
         flood-opacity="0"
         result="BackgroundImageFix"
         id="feFlood14" />
      <feBlend
         mode="normal"
         in="SourceGraphic"
         in2="BackgroundImageFix"
         result="shape"
         id="feBlend16" />
      <feColorMatrix
         in="SourceAlpha"
         type="matrix"
         values="0 0 0 0 0 0 0 0 0 0 0 0 0 0 0 0 0 0 127 0"
         result="hardAlpha"
         id="feColorMatrix18" />
      <feOffset
         id="feOffset20" />
      <feGaussianBlur
         stdDeviation="3"
         id="feGaussianBlur22" />
      <feComposite
         in2="hardAlpha"
         operator="arithmetic"
         k2="-1"
         k3="1"
         id="feComposite24"
         k1="0"
         k4="0" />
      <feColorMatrix
         type="matrix"
         values="0 0 0 0 1 0 0 0 0 1 0 0 0 0 1 0 0 0 0.7 0"
         id="feColorMatrix26" />
      <feBlend
         mode="normal"
         in2="shape"
         result="effect1_innerShadow"
         id="feBlend28" />
    </filter>
    <filter
       id="filter1_dd"
       x="27"
       y="29.379601"
       width="33.849899"
       height="35.2407"
       filterUnits="userSpaceOnUse"
       color-interpolation-filters="sRGB">
      <feFlood
         flood-opacity="0"
         result="BackgroundImageFix"
         id="feFlood31" />
      <feColorMatrix
         in="SourceAlpha"
         type="matrix"
         values="0 0 0 0 0 0 0 0 0 0 0 0 0 0 0 0 0 0 127 0"
         result="hardAlpha"
         id="feColorMatrix33" />
      <feOffset
         dy="4"
         id="feOffset35" />
      <feGaussianBlur
         stdDeviation="4"
         id="feGaussianBlur37" />
      <feColorMatrix
         type="matrix"
         values="0 0 0 0 0.491667 0 0 0 0 0 0 0 0 0 1.75834e-07 0 0 0 0.2 0"
         id="feColorMatrix39" />
      <feBlend
         mode="normal"
         in2="BackgroundImageFix"
         result="effect1_dropShadow"
         id="feBlend41" />
      <feColorMatrix
         in="SourceAlpha"
         type="matrix"
         values="0 0 0 0 0 0 0 0 0 0 0 0 0 0 0 0 0 0 127 0"
         result="hardAlpha"
         id="feColorMatrix43" />
      <feOffset
         dy="0.5"
         id="feOffset45" />
      <feGaussianBlur
         stdDeviation="1"
         id="feGaussianBlur47" />
      <feColorMatrix
         type="matrix"
         values="0 0 0 0 0.575 0 0 0 0 0 0 0 0 0 2.05636e-07 0 0 0 0.15 0"
         id="feColorMatrix49" />
      <feBlend
         mode="normal"
         in2="effect1_dropShadow"
         result="effect2_dropShadow"
         id="feBlend51" />
      <feBlend
         mode="normal"
         in="SourceGraphic"
         in2="effect2_dropShadow"
         result="shape"
         id="feBlend53" />
    </filter>
    <radialGradient
       id="paint0_radial"
       cx="0"
       cy="0"
       r="1"
       gradientUnits="userSpaceOnUse"
       gradientTransform="matrix(0,-885.23418,885.23373,0,512.19992,775.37857)">
      <stop
         stop-color="#FF3131"
         id="stop56" />
      <stop
         offset="1"
         stop-color="#97002D"
         id="stop58" />
    </radialGradient>
    <radialGradient
       id="paint1_radial"
       cx="0"
       cy="0"
       r="1"
       gradientUnits="userSpaceOnUse"
       gradientTransform="matrix(-281.11624,1028.7876,-1440.2997,-393.5623,793.32144,-8.1732996)">
      <stop
         stop-color="white"
         id="stop61" />
      <stop
         offset="1"
         stop-color="white"
         stop-opacity="0"
         id="stop63" />
    </radialGradient>
    <radialGradient
       id="paint2_radial"
       cx="0"
       cy="0"
       r="1"
       gradientUnits="userSpaceOnUse"
       gradientTransform="matrix(-80.833995,-85.222953,208.21765,-197.4945,54.7557,43.1648)">
      <stop
         stop-color="white"
         id="stop66" />
      <stop
         offset="1"
         stop-color="white"
         stop-opacity="0.75"
         id="stop68" />
    </radialGradient>
  </defs>
</svg>
