<svg width="1024" height="1024" viewBox="0 0 1024 1024" fill="none" xmlns="http://www.w3.org/2000/svg">
<g clip-path="url(#clip0_78_657)">
<path d="M665.777 2.38153C845.393 2.38154 910.017 2.38154 965.817 58.1811C1021.62 113.981 1021.62 178.605 1021.62 383.405L1021.62 640.596C1021.62 845.395 1021.62 910.02 965.817 965.819C910.017 1021.62 845.393 1021.62 640.593 1021.62L383.402 1021.62C178.602 1021.62 113.978 1021.62 58.1786 965.819C2.37902 910.02 2.37899 845.395 2.379 640.595L2.37901 383.404C2.37902 178.605 2.37905 113.981 58.1786 58.1811C113.978 2.38151 178.602 2.38151 383.402 2.38152L665.777 2.38153Z" fill="url(#paint0_radial_78_657)"/>
<g filter="url(#filter0_i_78_657)">
<circle cx="512" cy="512" r="416.744" fill="url(#paint1_radial_78_657)"/>
</g>
<path d="M724.462 531.75C722.041 591.529 708.633 649.606 684.494 704.915C716.021 719.32 745.584 737.537 772.711 759.366C830.944 696.815 864.684 617.175 869.21 531.75H724.462Z" fill="url(#paint2_radial_78_657)"/>
<path d="M630.438 726.062C598.192 715.292 565.083 708.943 531.572 707.172V848.166C571.37 813.861 604.959 772.382 630.438 726.062Z" fill="url(#paint3_radial_78_657)"/>
<path d="M567.16 869.209C632.417 858.994 693.444 830.675 743.993 786.974C720.281 768.443 694.618 752.836 667.287 740.457C641.392 788.814 607.41 832.456 567.16 869.209Z" fill="url(#paint4_radial_78_657)"/>
<path d="M728.576 224.515C681.273 188.036 625.781 164.083 567.32 154.791C602.282 186.653 632.572 223.632 656.702 264.04C682.175 253.457 706.207 240.195 728.576 224.515Z" fill="url(#paint5_radial_78_657)"/>
<path d="M531.572 531.75V667.509C571.142 669.398 610.199 677.047 648.115 690.28C670.411 639.631 682.878 586.461 685.299 531.75H531.572Z" fill="url(#paint6_radial_78_657)"/>
<path d="M531.572 492.171H685.284C682.49 429.806 666.573 368.443 638.694 312.751C603.528 324.104 567.635 330.703 531.572 332.459V492.171Z" fill="url(#paint7_radial_78_657)"/>
<path d="M869.21 492.171C864.227 400.918 824.919 314.728 759.283 251.088C733.412 270.193 705.349 286.173 675.568 298.91C704.98 359.062 721.702 425.106 724.452 492.171H869.21Z" fill="url(#paint8_radial_78_657)"/>
<path d="M531.572 175.716V292.801C560.921 291.221 590.159 286.055 618.935 277.43C595.281 239.484 565.646 205.017 531.572 175.716Z" fill="url(#paint9_radial_78_657)"/>
<path d="M339.512 704.915C315.363 649.606 301.96 591.529 299.539 531.75H154.796C159.318 617.16 193.057 696.8 251.299 759.366C278.408 737.542 307.97 719.325 339.512 704.915Z" fill="url(#paint10_radial_78_657)"/>
<path d="M299.548 492.171C302.299 425.106 319.016 359.062 348.433 298.91C318.647 286.173 290.588 270.193 264.717 251.088C199.082 314.728 159.768 400.918 154.791 492.171H299.548Z" fill="url(#paint11_radial_78_657)"/>
<path d="M405.07 277.43C433.846 286.055 463.094 291.221 492.443 292.801V175.716C458.378 205.007 428.738 239.479 405.07 277.43Z" fill="url(#paint12_radial_78_657)"/>
<path d="M492.443 848.176V707.172C458.922 708.943 425.813 715.292 393.563 726.062C419.041 772.392 452.635 813.871 492.443 848.176Z" fill="url(#paint13_radial_78_657)"/>
<path d="M492.443 531.75H338.702C341.123 586.461 353.59 639.631 375.886 690.28C413.802 677.047 452.863 669.398 492.443 667.509V531.75Z" fill="url(#paint14_radial_78_657)"/>
<path d="M280.013 786.974C330.562 830.675 391.584 858.994 456.846 869.209C416.592 832.461 382.614 788.819 356.714 740.457C329.378 752.845 303.716 768.448 280.013 786.974Z" fill="url(#paint15_radial_78_657)"/>
<path d="M492.443 332.459C456.37 330.703 420.472 324.104 385.306 312.751C357.422 368.443 341.51 429.806 338.716 492.171H492.443V332.459Z" fill="url(#paint16_radial_78_657)"/>
<path d="M456.691 154.791C398.225 164.083 342.733 188.036 295.43 224.515C317.794 240.195 341.826 253.457 367.299 264.04C391.443 223.622 421.738 186.643 456.691 154.791Z" fill="url(#paint17_radial_78_657)"/>
</g>
<defs>
<filter id="filter0_i_78_657" x="95.2559" y="95.2558" width="833.488" height="833.488" filterUnits="userSpaceOnUse" color-interpolation-filters="sRGB">
<feFlood flood-opacity="0" result="BackgroundImageFix"/>
<feBlend mode="normal" in="SourceGraphic" in2="BackgroundImageFix" result="shape"/>
<feColorMatrix in="SourceAlpha" type="matrix" values="0 0 0 0 0 0 0 0 0 0 0 0 0 0 0 0 0 0 127 0" result="hardAlpha"/>
<feOffset/>
<feGaussianBlur stdDeviation="35.7209"/>
<feComposite in2="hardAlpha" operator="arithmetic" k2="-1" k3="1"/>
<feColorMatrix type="matrix" values="0 0 0 0 1 0 0 0 0 1 0 0 0 0 1 0 0 0 0.9 0"/>
<feBlend mode="normal" in2="shape" result="effect1_innerShadow_78_657"/>
</filter>
<radialGradient id="paint0_radial_78_657" cx="0" cy="0" r="1" gradientUnits="userSpaceOnUse" gradientTransform="translate(464.369 1024) rotate(-85.3937) scale(1260.26 1444.74)">
<stop stop-color="#262A8F"/>
<stop offset="0.838542" stop-color="#006F9E"/>
</radialGradient>
<radialGradient id="paint1_radial_78_657" cx="0" cy="0" r="1" gradientUnits="userSpaceOnUse" gradientTransform="translate(142.884 226.233) rotate(39.1933) scale(998.626)">
<stop offset="0.158009" stop-color="white" stop-opacity="0.59"/>
<stop offset="0.922991" stop-color="white" stop-opacity="0.01"/>
</radialGradient>
<radialGradient id="paint2_radial_78_657" cx="0" cy="0" r="1" gradientUnits="userSpaceOnUse" gradientTransform="translate(512 281.302) rotate(90) scale(543.256 551.879)">
<stop stop-color="white"/>
<stop offset="1" stop-color="white" stop-opacity="0.5"/>
</radialGradient>
<radialGradient id="paint3_radial_78_657" cx="0" cy="0" r="1" gradientUnits="userSpaceOnUse" gradientTransform="translate(512 281.302) rotate(90) scale(543.256 551.879)">
<stop stop-color="white"/>
<stop offset="1" stop-color="white" stop-opacity="0.5"/>
</radialGradient>
<radialGradient id="paint4_radial_78_657" cx="0" cy="0" r="1" gradientUnits="userSpaceOnUse" gradientTransform="translate(512 281.302) rotate(90) scale(543.256 551.879)">
<stop stop-color="white"/>
<stop offset="1" stop-color="white" stop-opacity="0.5"/>
</radialGradient>
<radialGradient id="paint5_radial_78_657" cx="0" cy="0" r="1" gradientUnits="userSpaceOnUse" gradientTransform="translate(512 281.302) rotate(90) scale(543.256 551.879)">
<stop stop-color="white"/>
<stop offset="1" stop-color="white" stop-opacity="0.5"/>
</radialGradient>
<radialGradient id="paint6_radial_78_657" cx="0" cy="0" r="1" gradientUnits="userSpaceOnUse" gradientTransform="translate(512 281.302) rotate(90) scale(543.256 551.879)">
<stop stop-color="white"/>
<stop offset="1" stop-color="white" stop-opacity="0.5"/>
</radialGradient>
<radialGradient id="paint7_radial_78_657" cx="0" cy="0" r="1" gradientUnits="userSpaceOnUse" gradientTransform="translate(512 281.302) rotate(90) scale(543.256 551.879)">
<stop stop-color="white"/>
<stop offset="1" stop-color="white" stop-opacity="0.5"/>
</radialGradient>
<radialGradient id="paint8_radial_78_657" cx="0" cy="0" r="1" gradientUnits="userSpaceOnUse" gradientTransform="translate(512 281.302) rotate(90) scale(543.256 551.879)">
<stop stop-color="white"/>
<stop offset="1" stop-color="white" stop-opacity="0.5"/>
</radialGradient>
<radialGradient id="paint9_radial_78_657" cx="0" cy="0" r="1" gradientUnits="userSpaceOnUse" gradientTransform="translate(512 281.302) rotate(90) scale(543.256 551.879)">
<stop stop-color="white"/>
<stop offset="1" stop-color="white" stop-opacity="0.5"/>
</radialGradient>
<radialGradient id="paint10_radial_78_657" cx="0" cy="0" r="1" gradientUnits="userSpaceOnUse" gradientTransform="translate(512 281.302) rotate(90) scale(543.256 551.879)">
<stop stop-color="white"/>
<stop offset="1" stop-color="white" stop-opacity="0.5"/>
</radialGradient>
<radialGradient id="paint11_radial_78_657" cx="0" cy="0" r="1" gradientUnits="userSpaceOnUse" gradientTransform="translate(512 281.302) rotate(90) scale(543.256 551.879)">
<stop stop-color="white"/>
<stop offset="1" stop-color="white" stop-opacity="0.5"/>
</radialGradient>
<radialGradient id="paint12_radial_78_657" cx="0" cy="0" r="1" gradientUnits="userSpaceOnUse" gradientTransform="translate(512 281.302) rotate(90) scale(543.256 551.879)">
<stop stop-color="white"/>
<stop offset="1" stop-color="white" stop-opacity="0.5"/>
</radialGradient>
<radialGradient id="paint13_radial_78_657" cx="0" cy="0" r="1" gradientUnits="userSpaceOnUse" gradientTransform="translate(512 281.302) rotate(90) scale(543.256 551.879)">
<stop stop-color="white"/>
<stop offset="1" stop-color="white" stop-opacity="0.5"/>
</radialGradient>
<radialGradient id="paint14_radial_78_657" cx="0" cy="0" r="1" gradientUnits="userSpaceOnUse" gradientTransform="translate(512 281.302) rotate(90) scale(543.256 551.879)">
<stop stop-color="white"/>
<stop offset="1" stop-color="white" stop-opacity="0.5"/>
</radialGradient>
<radialGradient id="paint15_radial_78_657" cx="0" cy="0" r="1" gradientUnits="userSpaceOnUse" gradientTransform="translate(512 281.302) rotate(90) scale(543.256 551.879)">
<stop stop-color="white"/>
<stop offset="1" stop-color="white" stop-opacity="0.5"/>
</radialGradient>
<radialGradient id="paint16_radial_78_657" cx="0" cy="0" r="1" gradientUnits="userSpaceOnUse" gradientTransform="translate(512 281.302) rotate(90) scale(543.256 551.879)">
<stop stop-color="white"/>
<stop offset="1" stop-color="white" stop-opacity="0.5"/>
</radialGradient>
<radialGradient id="paint17_radial_78_657" cx="0" cy="0" r="1" gradientUnits="userSpaceOnUse" gradientTransform="translate(512 281.302) rotate(90) scale(543.256 551.879)">
<stop stop-color="white"/>
<stop offset="1" stop-color="white" stop-opacity="0.5"/>
</radialGradient>
<clipPath id="clip0_78_657">
<rect width="1024" height="1024" fill="white"/>
</clipPath>
</defs>
</svg>
