<svg width="86" height="86" viewBox="0 0 86 86" fill="none" xmlns="http://www.w3.org/2000/svg">
<path d="M0.200012 30.0849C0.200012 14.9999 0.200012 9.57253 4.8863 4.88624C9.5726 0.199951 15 0.199951 32.2 0.199951H53.8C71 0.199951 76.4274 0.199951 81.1137 4.88624C85.8 9.57253 85.8 14.9999 85.8 32.2V53.8C85.8 70.9999 85.8 76.4274 81.1137 81.1137C76.4274 85.7999 71 85.7999 53.8 85.7999H32.2C15 85.7999 9.5726 85.7999 4.8863 81.1137C0.200012 76.4274 0.200012 70.9999 0.200012 53.7999V30.0849Z" fill="url(#paint0_radial)"/>
<path d="M42.9783 18C42.9783 18 21.1004 18 15.6094 19.4563C12.6693 20.2948 10.2483 22.7658 9.42684 25.8109C8.00003 31.4154 8 43.0221 8 43.0221C8 43.0221 8.00003 54.6728 9.42684 60.1891C10.2483 63.2341 12.6261 65.661 15.6094 66.4995C21.1437 67.9999 42.9783 68 42.9783 68C42.9783 68 64.8995 68 70.3905 66.5437C73.3738 65.7052 75.7515 63.3224 76.5298 60.2333C77.9998 54.6728 77.9999 43.0662 77.9999 43.0662C77.9999 43.0662 78.0431 31.4154 76.5298 25.8109C75.7515 22.7658 73.3738 20.339 70.3905 19.5446C64.8995 18.0001 42.9783 18 42.9783 18Z" fill="url(#paint1_radial)"/>
<g filter="url(#filter0_i)">
<path d="M42.9783 18C42.9783 18 21.1004 18 15.6094 19.4563C12.6693 20.2948 10.2483 22.7658 9.42684 25.8109C8.00003 31.4154 8 43.0221 8 43.0221C8 43.0221 8.00003 54.6728 9.42684 60.1891C10.2483 63.2341 12.6261 65.661 15.6094 66.4995C21.1437 67.9999 42.9783 68 42.9783 68C42.9783 68 64.8995 68 70.3905 66.5437C73.3738 65.7052 75.7515 63.3224 76.5298 60.2333C77.9998 54.6728 77.9999 43.0662 77.9999 43.0662C77.9999 43.0662 78.0431 31.4154 76.5298 25.8109C75.7515 22.7658 73.3738 20.339 70.3905 19.5446C64.8995 18.0001 42.9783 18 42.9783 18Z" fill="white" fill-opacity="0.01"/>
</g>
<g filter="url(#filter1_dd)">
<path d="M51.8138 41.2476C53.1953 42.0074 53.1953 43.9926 51.8138 44.7524L37.9638 52.3699C36.6309 53.103 35 52.1387 35 50.6175L35 35.3825C35 33.8613 36.6309 32.897 37.9638 33.6301L51.8138 41.2476Z" fill="url(#paint2_radial)"/>
</g>
<defs>
<filter id="filter0_i" x="8" y="18" width="70" height="50" filterUnits="userSpaceOnUse" color-interpolation-filters="sRGB">
<feFlood flood-opacity="0" result="BackgroundImageFix"/>
<feBlend mode="normal" in="SourceGraphic" in2="BackgroundImageFix" result="shape"/>
<feColorMatrix in="SourceAlpha" type="matrix" values="0 0 0 0 0 0 0 0 0 0 0 0 0 0 0 0 0 0 127 0" result="hardAlpha"/>
<feOffset/>
<feGaussianBlur stdDeviation="3"/>
<feComposite in2="hardAlpha" operator="arithmetic" k2="-1" k3="1"/>
<feColorMatrix type="matrix" values="0 0 0 0 1 0 0 0 0 1 0 0 0 0 1 0 0 0 0.7 0"/>
<feBlend mode="normal" in2="shape" result="effect1_innerShadow"/>
</filter>
<filter id="filter1_dd" x="27" y="29.3796" width="33.8499" height="35.2407" filterUnits="userSpaceOnUse" color-interpolation-filters="sRGB">
<feFlood flood-opacity="0" result="BackgroundImageFix"/>
<feColorMatrix in="SourceAlpha" type="matrix" values="0 0 0 0 0 0 0 0 0 0 0 0 0 0 0 0 0 0 127 0" result="hardAlpha"/>
<feOffset dy="4"/>
<feGaussianBlur stdDeviation="4"/>
<feColorMatrix type="matrix" values="0 0 0 0 0.491667 0 0 0 0 0 0 0 0 0 1.75834e-07 0 0 0 0.2 0"/>
<feBlend mode="normal" in2="BackgroundImageFix" result="effect1_dropShadow"/>
<feColorMatrix in="SourceAlpha" type="matrix" values="0 0 0 0 0 0 0 0 0 0 0 0 0 0 0 0 0 0 127 0" result="hardAlpha"/>
<feOffset dy="0.5"/>
<feGaussianBlur stdDeviation="1"/>
<feColorMatrix type="matrix" values="0 0 0 0 0.575 0 0 0 0 0 0 0 0 0 2.05636e-07 0 0 0 0.15 0"/>
<feBlend mode="normal" in2="effect1_dropShadow" result="effect2_dropShadow"/>
<feBlend mode="normal" in="SourceGraphic" in2="effect2_dropShadow" result="shape"/>
</filter>
<radialGradient id="paint0_radial" cx="0" cy="0" r="1" gradientUnits="userSpaceOnUse" gradientTransform="translate(43 65) rotate(-90) scale(74)">
<stop stop-color="#FF3131"/>
<stop offset="1" stop-color="#97002D"/>
</radialGradient>
<radialGradient id="paint1_radial" cx="0" cy="0" r="1" gradientUnits="userSpaceOnUse" gradientTransform="translate(66.5 -0.5) rotate(105.283) scale(89.153 124.814)">
<stop stop-color="white"/>
<stop offset="1" stop-color="white" stop-opacity="0"/>
</radialGradient>
<radialGradient id="paint2_radial" cx="0" cy="0" r="1" gradientUnits="userSpaceOnUse" gradientTransform="translate(54.7557 43.1648) rotate(-133.486) scale(117.461 286.982)">
<stop stop-color="white"/>
<stop offset="1" stop-color="white" stop-opacity="0.75"/>
</radialGradient>
</defs>
</svg>
